simulation
nRows=61
nColumns=15
endheader
time  TH_x TH_y TH_z SC_y  SC_z  SC_x  AC_y  AC_z  AC_x  GH_y  GH_z  GH_yy  EL_x  PS_y
0.000000  0.000000  0.000000  0.000000  -34.671362  0.885216  -10.000000  52.488852  17.343714  13.894572  26.744123  72.671487  -75.520252  73.115874  116.413261
0.000146  0.000000  0.000000  0.000000  -34.671362  0.885216  -1.428571  53.765298  10.481815  8.598956  26.744123  72.671487  -75.520252  73.115874  116.413261
0.000292  0.000000  0.000000  0.000000  -34.671362  0.885216  7.142857  54.384752  3.536233  3.535094  26.744123  72.671487  -75.520252  73.115874  116.413261
0.000438  0.000000  0.000000  0.000000  -34.671362  0.885216  15.714286  54.389099  -3.436464  -1.453039  26.744123  72.671487  -75.520252  73.115874  116.413261
0.000584  0.000000  0.000000  0.000000  -34.671362  0.885216  24.285714  53.778650  -10.382821  -6.514756  26.744123  72.671487  -75.520252  73.115874  116.413261
0.000730  0.000000  0.000000  0.000000  -34.671362  0.885216  32.857143  52.512110  -17.246364  -11.805868  26.744123  72.671487  -75.520252  73.115874  116.413261
0.000876  0.000000  0.000000  0.000000  -34.671362  0.885216  41.428571  50.502584  -23.960989  -17.502442  26.744123  72.671487  -75.520252  73.115874  116.413261
0.001022  0.000000  0.000000  0.000000  -34.671362  0.885216  50.000000  47.609894  -30.442695  -23.815242  26.744123  72.671487  -75.520252  73.115874  116.413261
0.001168  0.000000  0.000000  0.000000  -20.108410  17.961382  -10.000000  39.604094  9.787255  11.439956  166.156832  7.968050  175.322522  34.896042  122.631461
0.001314  0.000000  0.000000  0.000000  -20.108410  17.961382  -1.428571  40.415068  4.270375  4.827567  166.156832  7.968050  175.322522  34.896042  122.631461
0.001460  0.000000  0.000000  0.000000  -20.108410  17.961382  7.142857  40.584247  -1.302291  -1.689844  166.156832  7.968050  175.322522  34.896042  122.631461
0.001606  0.000000  0.000000  0.000000  -20.108410  17.961382  15.714286  40.117404  -6.858067  -8.236144  166.156832  7.968050  175.322522  34.896042  122.631461
0.001752  0.000000  0.000000  0.000000  -20.108410  17.961382  24.285714  38.998682  -12.323179  -14.935783  166.156832  7.968050  175.322522  34.896042  122.631461
0.001898  0.000000  0.000000  0.000000  -20.108410  17.961382  32.857143  37.191450  -17.618251  -21.916206  166.156832  7.968050  175.322522  34.896042  122.631461
0.002044  0.000000  0.000000  0.000000  -20.108410  17.961382  41.428571  34.641206  -22.653677  -29.308140  166.156832  7.968050  175.322522  34.896042  122.631461
0.002190  0.000000  0.000000  0.000000  -20.108410  17.961382  50.000000  31.282513  -27.325370  -37.241565  166.156832  7.968050  175.322522  34.896042  122.631461
0.002336  0.000000  0.000000  0.000000  -10.662000  17.175397  -10.000000  47.727084  8.676511  -0.795971  -28.604155  58.492701  31.952086  50.847512  118.482360
0.002482  0.000000  0.000000  0.000000  -10.662000  17.175397  -1.428571  48.279200  2.300990  -6.554495  -28.604155  58.492701  31.952086  50.847512  118.482360
0.002629  0.000000  0.000000  0.000000  -10.662000  17.175397  7.142857  48.189514  -4.097524  -12.261532  -28.604155  58.492701  31.952086  50.847512  118.482360
0.002775  0.000000  0.000000  0.000000  -10.662000  17.175397  15.714286  47.453308  -10.454903  -18.060555  -28.604155  58.492701  31.952086  50.847512  118.482360
0.002921  0.000000  0.000000  0.000000  -10.662000  17.175397  24.285714  46.031863  -16.703281  -24.100438  -28.604155  58.492701  31.952086  50.847512  118.482360
0.003067  0.000000  0.000000  0.000000  -10.662000  17.175397  32.857143  43.851267  -22.764759  -30.543467  -28.604155  58.492701  31.952086  50.847512  118.482360
0.003213  0.000000  0.000000  0.000000  -10.662000  17.175397  41.428571  40.801602  -28.544293  -37.571366  -28.604155  58.492701  31.952086  50.847512  118.482360
0.003359  0.000000  0.000000  0.000000  -10.662000  17.175397  50.000000  36.740736  -33.921282  -45.385589  -28.604155  58.492701  31.952086  50.847512  118.482360
0.003505  0.000000  0.000000  0.000000  -9.307999  12.525279  -10.000000  39.951164  9.864097  16.801531  -26.436543  88.729101  0.526435  49.655134  119.251099
0.003651  0.000000  0.000000  0.000000  -9.307999  12.525279  -1.428571  40.764588  4.307427  10.222231  -26.436543  88.729101  0.526435  49.655134  119.251099
0.003797  0.000000  0.000000  0.000000  -9.307999  12.525279  7.142857  40.934834  -1.304936  3.738933  -26.436543  88.729101  0.526435  49.655134  119.251099
0.003943  0.000000  0.000000  0.000000  -9.307999  12.525279  15.714286  40.467848  -6.900550  -2.773366  -26.436543  88.729101  0.526435  49.655134  119.251099
0.004089  0.000000  0.000000  0.000000  -9.307999  12.525279  24.285714  39.347384  -12.405865  -9.440313  -26.436543  88.729101  0.526435  49.655134  119.251099
0.004235  0.000000  0.000000  0.000000  -9.307999  12.525279  32.857143  37.535786  -17.741634  -16.390828  -26.436543  88.729101  0.526435  49.655134  119.251099
0.004381  0.000000  0.000000  0.000000  -9.307999  12.525279  41.428571  34.976790  -22.818175  -23.757639  -26.436543  88.729101  0.526435  49.655134  119.251099
0.004527  0.000000  0.000000  0.000000  -9.307999  12.525279  50.000000  31.602339  -27.530965  -31.673441  -26.436543  88.729101  0.526435  49.655134  119.251099
0.004673  0.000000  0.000000  0.000000  -32.535554  9.321891  -10.000000  51.512604  31.112326  25.730300  -66.778223  50.505378  30.147228  20.429842  119.999098
0.004819  0.000000  0.000000  0.000000  -32.535554  9.321891  -1.428571  54.233209  24.271776  19.890387  -66.778223  50.505378  30.147228  20.429842  119.999098
0.004965  0.000000  0.000000  0.000000  -32.535554  9.321891  7.142857  56.092002  17.231338  14.657334  -66.778223  50.505378  30.147228  20.429842  119.999098
0.005111  0.000000  0.000000  0.000000  -32.535554  9.321891  15.714286  57.237923  10.065763  9.813240  -66.778223  50.505378  30.147228  20.429842  119.999098
0.005257  0.000000  0.000000  0.000000  -32.535554  9.321891  24.285714  57.759512  2.832831  5.181384  -66.778223  50.505378  30.147228  20.429842  119.999098
0.005403  0.000000  0.000000  0.000000  -32.535554  9.321891  32.857143  57.696065  -4.418345  0.607350  -66.778223  50.505378  30.147228  20.429842  119.999098
0.005549  0.000000  0.000000  0.000000  -32.535554  9.321891  41.428571  57.042852  -11.640930  -4.057229  -66.778223  50.505378  30.147228  20.429842  119.999098
0.005695  0.000000  0.000000  0.000000  -32.535554  9.321891  50.000000  55.750417  -18.784509  -8.970198  -66.778223  50.505378  30.147228  20.429842  119.999098
0.005841  0.000000  0.000000  0.000000  -39.693586  -3.766147  -10.000000  48.511712  16.977352  7.765415  98.855701  1.426955  -49.778913  58.393561  122.114467
0.005987  0.000000  0.000000  0.000000  -39.693586  -3.766147  -1.428571  49.882846  10.483458  2.002534  98.855701  1.426955  -49.778913  58.393561  122.114467
0.006133  0.000000  0.000000  0.000000  -39.693586  -3.766147  7.142857  50.575563  3.890221  -3.521169  98.855701  1.426955  -49.778913  58.393561  122.114467
0.006279  0.000000  0.000000  0.000000  -39.693586  -3.766147  15.714286  50.630346  -2.738466  -8.958617  98.855701  1.426955  -49.778913  58.393561  122.114467
0.006425  0.000000  0.000000  0.000000  -39.693586  -3.766147  24.285714  50.050391  -9.342272  -14.456644  98.855701  1.426955  -49.778913  58.393561  122.114467
0.006571  0.000000  0.000000  0.000000  -39.693586  -3.766147  32.857143  48.801818  -15.858386  -20.166367  98.855701  1.426955  -49.778913  58.393561  122.114467
0.006717  0.000000  0.000000  0.000000  -39.693586  -3.766147  41.428571  46.811631  -22.215108  -26.253472  98.855701  1.426955  -49.778913  58.393561  122.114467
0.006863  0.000000  0.000000  0.000000  -39.693586  -3.766147  50.000000  43.964398  -28.324428  -32.907732  98.855701  1.426955  -49.778913  58.393561  122.114467
0.007009  0.000000  0.000000  0.000000  -14.657956  -1.644955  -10.000000  52.533953  26.640373  9.911207  27.780999  100.227488  -0.629608  25.605798  117.245113
0.007155  0.000000  0.000000  0.000000  -14.657956  -1.644955  -1.428571  54.715554  19.733315  4.384061  27.780999  100.227488  -0.629608  25.605798  117.245113
0.007301  0.000000  0.000000  0.000000  -14.657956  -1.644955  7.142857  56.131664  12.671080  -0.678370  27.780999  100.227488  -0.629608  25.605798  117.245113
0.007447  0.000000  0.000000  0.000000  -14.657956  -1.644955  15.714286  56.890178  5.518367  -5.465046  27.780999  100.227488  -0.629608  25.605798  117.245113
0.007593  0.000000  0.000000  0.000000  -14.657956  -1.644955  24.285714  57.047379  -1.671684  -10.136866  27.780999  100.227488  -0.629608  25.605798  117.245113
0.007739  0.000000  0.000000  0.000000  -14.657956  -1.644955  32.857143  56.614740  -8.850546  -14.843152  27.780999  100.227488  -0.629608  25.605798  117.245113
0.007886  0.000000  0.000000  0.000000  -14.657956  -1.644955  41.428571  55.560491  -15.968336  -19.736682  27.780999  100.227488  -0.629608  25.605798  117.245113
0.008032  0.000000  0.000000  0.000000  -14.657956  -1.644955  50.000000  53.805567  -22.967509  -24.989234  27.780999  100.227488  -0.629608  25.605798  117.245113
0.008178  0.000000  0.000000  0.000000  -35.962864  13.375986  -10.000000  53.029867  15.622871  18.310301  38.496101  60.260724  -83.414800  16.886463  120.539867
0.008324  0.000000  0.000000  0.000000  -35.962864  13.375986  -1.428571  54.129572  8.720731  13.107447  38.496101  60.260724  -83.414800  16.886463  120.539867
0.008470  0.000000  0.000000  0.000000  -35.962864  13.375986  7.142857  54.588101  1.750415  8.094969  38.496101  60.260724  -83.414800  16.886463  120.539867
0.008616  0.000000  0.000000  0.000000  -35.962864  13.375986  15.714286  54.436538  -5.233180  3.119793  38.496101  60.260724  -83.414800  16.886463  120.539867
0.008762  0.000000  0.000000  0.000000  -35.962864  13.375986  24.285714  53.664642  -12.176674  -1.967805  38.496101  60.260724  -83.414800  16.886463  120.539867
